<?xml version="1.0" encoding="UTF-8"?><svg id="b" xmlns="http://www.w3.org/2000/svg" viewBox="0 0 700 890.35"><g id="c"><path d="M336.95,886.54c-123.85-45.68-221.23-122.71-283.44-240.74C16.94,576.44.3,501.96.19,423.76.03,304.46.2,185.15,0,65.85c-.01-6.8,1.98-9.5,8.65-11.51C78.85,33.28,149.89,16.1,222.74,7.21c19.42-2.37,38.97-3.69,58.45-5.63,1.12-.11,30.44-1.77,68.81-1.56,32.41.18,74.61,2.21,77.84,2.43,90.43,6.18,177.99,26.59,264.48,52.49,4.57,1.37,6.61,3.28,6.6,8.57-.33,126.12,3.5,252.41-1.56,378.33-7.25,180.27-95.36,314.33-249.95,405.52-27.61,16.29-56.96,29.07-87.22,39.73-2.4.85-9.45,3.28-10.65,3.28-1.77,0-10.05-2.87-12.6-3.81ZM673.67,272.03s.09,0,.13,0c0-62.66-.05-125.31.09-187.97.01-5.58-.64-8.86-7.13-10.82-96.76-29.33-195.43-46.58-296.68-48.59-115.25-2.29-227.53,15.59-337.7,48.58-7.06,2.11-7.29,5.89-7.28,11.6.1,112.25.26,224.49.03,336.74-.42,209.47,131.85,375.23,318.81,440.94,3.89,1.37,7.25,1.35,11.14-.02,184.54-64.99,314.81-229.52,318.45-432.78.94-52.54.14-105.12.14-157.67Z" fill="#640422" stroke-width="0"/><path d="M673.67,272.03c0,52.56.8,105.13-.14,157.67-3.64,203.25-133.91,367.78-318.45,432.78-3.89,1.37-7.25,1.39-11.14.02C156.98,796.79,24.71,631.03,25.13,421.56c.23-112.25.07-224.49-.03-336.74,0-5.71.22-9.49,7.28-11.6C142.55,40.24,254.82,22.36,370.08,24.65c101.25,2.01,199.92,19.26,296.68,48.59,6.49,1.97,7.15,5.24,7.13,10.82-.14,62.66-.09,125.31-.09,187.97-.04,0-.09,0-.13,0ZM49.98,280.98c0,47.51-.02,95.02,0,142.53.09,185.57,117.04,350.6,292.06,412.39,5.38,1.9,9.95,1.73,15.28-.16,174.76-61.99,291.36-226.41,291.65-411.78.16-106.31-.13-212.61.3-318.92.04-9.42-3.21-12.42-11.54-14.81-78.76-22.54-158.96-35.95-240.83-39.68-115.46-5.25-228.57,8.32-339.45,40.93-6.11,1.8-7.63,4.4-7.61,10.43.23,59.68.14,119.37.14,179.06Z" fill="#faf7f8" stroke-width="0"/><path d="M49.98,280.98c0-59.69.09-119.37-.14-179.06-.02-6.03,1.49-8.64,7.61-10.43,110.88-32.61,223.99-46.18,339.45-40.93,81.87,3.73,162.07,17.14,240.83,39.68,8.33,2.38,11.58,5.38,11.54,14.81-.43,106.3-.14,212.61-.3,318.92-.28,185.37-116.89,349.8-291.65,411.78-5.33,1.89-9.9,2.06-15.28.16-175.02-61.8-291.97-226.83-292.06-412.39-.02-47.51,0-95.02,0-142.53ZM393.74,209.33c.51-10.37.97-20.75,1.55-31.12.29-5.25-2.68-8.09-6.92-5.7-10.28,5.78-20.88,3.48-31.34,2.49-27.53-2.59-55.03-4.34-82.61-.89-41.3,5.17-77.35,21.03-103.91,53.93-38.66,47.9-49.3,103.32-38.76,162.77,10.51,59.26,45.12,99.01,102.87,117.11,51,15.99,102.63,11.38,154.19,2.55,4.49-.77,5.27-3.5,5.28-7.59.06-16.93,1.33-33.8,2.78-50.67.25-2.88,3.74-7.29-1.58-9.02-4.92-1.61-7.67,1.36-9.27,5.81-.7,1.94-2.01,3.65-2.76,5.58-12.75,32.39-36.81,45.72-70.92,42.17-1.18-.12-2.37-.07-3.56-.11-57.24-1.93-95.73-32.11-109.87-87.55-10.3-40.38-10.48-81.26-.44-121.71,15.6-62.84,63.53-97.88,128.3-95.11,20.99.9,38.18,8.03,48.32,27.65,3.54,6.85,7.14,13.69,10.39,20.68,1.69,3.63,4.61,3.47,7.48,2.99,3.62-.6,2.09-3.67,2.01-5.78-.32-9.49-.8-18.98-1.23-28.48ZM386.64,322.84c2.51,8.3,4.41,15.11,6.62,21.82,24.7,74.99,49.47,149.95,74.18,224.93,8.17,24.8,5.46,29.91-19.53,36.71-3.39.92-6.49,1.4-5.62,6,.91,4.84,4.53,2.67,7.1,2.58,35.91-1.27,71.81-1.23,107.71-.02,2.53.09,6.15,2.41,7.25-2.35,1.19-5.14-2.72-5.77-6.08-6.77-10.07-2.99-18.08-8.72-23.74-17.62-5.14-8.09-8.25-17.08-11.31-26.08-14.89-43.84-29.75-87.7-44.63-131.54-17.36-51.15-34.87-102.26-51.93-153.51-2.19-6.59-4.53-7.47-10.55-4.82-9.76,4.3-19.98,7.6-30.57,9.14-5.76.84-8.31,3.72-10.36,9.01-21.44,55.35-43.17,110.6-64.82,165.87-6.89,17.58-6.89,17.13,12.19,17.45,8.84.15,12.91-2.77,15.79-11.33,15.52-46.11,31.75-91.97,48.28-139.48ZM277.69,615.06c0-.16,0-.33,0-.49,12.44,0,24.9.38,37.31-.22,3.92-.19,10.5,5.12,11.73-2.38,1.35-8.19-6.96-5.4-10.88-6.49-17.08-4.75-21.5-11.52-16.69-28.55,2.73-9.68,5.85-19.29,9.43-28.7,2.25-5.93.54-7.1-5.18-6.87-6.79.28-13.65.06-20.42-.61-4.42-.43-6.33,1.19-7.81,5.1-3.98,10.53-8.25,20.95-12.59,31.33-5.96,14.25-14.69,25.82-30.76,29.45-3.54.8-4.16,2.69-3.85,5.66.37,3.6,2.92,2.81,5.29,2.8,14.8-.06,29.61-.03,44.41-.03Z" fill="#640422" stroke-width="0"/><path d="M393.75,209.34c.42,9.5.9,18.98,1.22,28.47.07,2.11,1.61,5.18-2.01,5.78-2.86.48-5.79.64-7.48-2.99-3.26-6.99-6.85-13.83-10.39-20.68-10.14-19.62-27.33-26.75-48.32-27.65-64.77-2.77-112.7,32.27-128.3,95.11-10.04,40.45-9.86,81.34.44,121.71,14.15,55.44,52.64,85.62,109.87,87.55,1.19.04,2.38-.02,3.56.11,34.11,3.55,58.17-9.78,70.92-42.17.76-1.92,2.07-3.64,2.76-5.58,1.6-4.46,4.34-7.42,9.27-5.81,5.32,1.74,1.82,6.15,1.58,9.02-1.45,16.87-2.72,33.74-2.78,50.67-.01,4.09-.79,6.82-5.28,7.59-51.56,8.83-103.19,13.44-154.19-2.55-57.75-18.1-92.35-57.86-102.87-117.11-10.55-59.45.1-114.87,38.76-162.77,26.56-32.91,62.61-48.77,103.91-53.93,27.58-3.45,55.08-1.7,82.61.89,10.46.98,21.06,3.29,31.34-2.49,4.24-2.39,7.21.46,6.92,5.7-.58,10.37-1.04,20.75-1.54,31.13Z" fill="#faf7f8" stroke-width="0"/><path d="M386.64,322.84c-16.53,47.51-32.76,93.38-48.28,139.48-2.88,8.55-6.95,11.48-15.79,11.33-19.08-.32-19.08.13-12.19-17.45,21.66-55.27,43.38-110.51,64.82-165.87,2.05-5.29,4.6-8.17,10.36-9.01,10.59-1.54,20.81-4.84,30.57-9.14,6.02-2.65,8.35-1.77,10.55,4.82,17.06,51.25,34.57,102.36,51.93,153.51,14.88,43.85,29.73,87.7,44.63,131.54,3.06,9,6.17,17.98,11.31,26.08,5.66,8.9,13.68,14.63,23.74,17.62,3.36,1,7.27,1.63,6.08,6.77-1.1,4.76-4.72,2.43-7.25,2.35-35.91-1.21-71.81-1.25-107.71.02-2.57.09-6.19,2.26-7.1-2.58-.87-4.61,2.23-5.08,5.62-6,24.99-6.8,27.7-11.91,19.53-36.71-24.71-74.98-49.48-149.95-74.18-224.93-2.21-6.71-4.11-13.52-6.62-21.82Z" fill="#faf7f8" stroke-width="0"/><path d="M277.69,615.06c-14.8,0-29.61-.03-44.41.03-2.37.01-4.92.8-5.29-2.8-.31-2.97.31-4.86,3.85-5.66,16.07-3.63,24.8-15.2,30.76-29.45,4.34-10.38,8.61-20.81,12.59-31.33,1.48-3.92,3.39-5.54,7.81-5.1,6.76.66,13.62.88,20.42.61,5.71-.23,7.43.94,5.18,6.87-3.58,9.4-6.69,19.01-9.43,28.7-4.81,17.04-.38,23.81,16.69,28.55,3.92,1.09,12.24-1.7,10.88,6.49-1.24,7.5-7.82,2.19-11.73,2.38-12.41.6-24.87.22-37.31.22,0,.16,0,.33,0,.49Z" fill="#faf7f8" stroke-width="0"/></g></svg>