<?xml version="1.0" encoding="UTF-8"?><svg id="b" xmlns="http://www.w3.org/2000/svg" viewBox="0 0 700 995.66"><g id="c"><path d="M19.57,467.47c-1.92.29-2.98,1.3-4.16,2.08-.72.48-1.39,1.06-2.36.52-.96-.53-.91-1.42-.82-2.27.59-6.13,1.12-12.27,1.85-18.39,2.47-20.57,6.22-40.89,12.4-60.7,2.52-8.08,5.42-16.01,8.7-23.82.42-.99,1.44-2.06.45-3.19-1.04-1.19-2.32-.47-3.48-.11-3.67,1.15-7.35,2.26-10.98,3.52-3.82,1.33-4.25,1.17-4.53-2.95-1.42-20.7,2.99-40.13,12.73-58.4,2.22-4.16,4.62-8.23,7.34-12.08,1.28-1.81.94-3.06-.57-4.48-5.97-5.6-11.87-11.27-17.8-16.91-2.24-2.14-2.17-3.45.41-5.3,9.53-6.86,18.84-14.08,28.71-20.42,9.3-5.97,11.83-13.86,9.83-24.25-4.66-24.13-4.38-48.43-1.81-72.77,2.46-23.3,6.68-46.29,12.91-68.86,4.4-15.92,12.25-30.46,19.91-45,5.78-10.98,11.87-21.79,18.61-32.21.74-1.14,1.15-2.31,2.86-.66,15.85,15.21,32.77,29.23,49.46,43.48,39.47,33.71,79.32,66.98,117.87,101.75,9.15,8.25,18.27,16.55,26.91,25.35,1.57,1.6,3.06,2.18,5.33,1.82,27.23-4.3,54.45-4.21,81.61.63,1.59.28,2.61.05,3.79-1.1,25.58-24.83,52.65-48,79.59-71.32,36.84-31.89,74.49-62.84,110.65-95.52,1.71-1.55,3.43-3.11,4.98-4.82,1.35-1.49,2.09-1.31,3.15.35,7.25,11.37,13.83,23.11,20.06,35.05,7.17,13.72,14.39,27.48,18.55,42.46,5.13,18.45,8.66,37.28,11.33,56.25,2.12,15.08,3.37,30.24,3.33,45.46-.03,13.2-1.09,26.35-3.48,39.36-.54,2.94-1,5.9-.87,8.89.27,5.92,3.2,10.31,7.96,13.69,10.21,7.24,20.36,14.56,30.53,21.84,3.53,2.53,3.58,3.47.51,6.39-5.64,5.38-11.19,10.87-16.92,16.16-1.91,1.77-1.88,3.13-.5,5.18,9.16,13.53,15.63,28.21,18.46,44.39,1.5,8.58,1.79,17.23,1.3,25.91-.19,3.39-1.02,3.83-4.19,2.77-3.92-1.31-7.85-2.57-11.79-3.83-.92-.29-1.9-.56-2.71.25-.96.96-.41,1.99,0,2.95,11.35,26.39,17.4,54.13,20.98,82.48.96,7.64,1.61,15.32,2.38,22.98.08.82.01,1.66.01,2.78-1.04-.58-1.87-1-2.67-1.49-.79-.48-1.56-.82-2.38-.12-.85.73-.46,1.53-.13,2.36,2.92,7.43,5.55,14.96,7.76,22.63,5.55,19.24,8.55,38.85,9.2,58.87,1.26,38.31-6.17,75.21-17.71,111.47-3.76,11.81-7.95,23.47-12.45,35.01-.46,1.17-.74,2.4-2.33,2.58-1.51.17-2.26-.75-3-1.82-1.54-2.21-3.08-4.42-4.67-6.6-1.92-2.64-2.62-2.71-5.04-.61-5.12,4.47-9.16,9.83-13.06,15.36-18.39,26.05-32.54,54.17-41.58,84.79-2.35,7.95-3.86,16.08-4.9,24.3-.44,3.51-2.11,4.21-4.99,2-4.43-3.4-8.81-6.86-13.23-10.28-3.79-2.93-3.99-2.89-6.69.92-13,18.29-26.2,36.43-40.47,53.77-19.72,23.95-41.04,46.24-66.63,64.07-13.12,9.14-27.28,16.51-41.3,24.56-.78-2.93-.34-5.7-.49-8.43-.07-1.28.59-2.94-.91-3.68-1.6-.78-2.38.89-3.3,1.73-15.17,13.8-30.52,27.41-46.54,40.23-4.43,3.55-8.95,6.97-13.79,9.99-2.61,1.63-4.87,1.59-7.46,0-10.79-6.6-20.59-14.56-30.48-22.37-12.4-9.79-24.55-19.88-36.58-30.11-.77-.65-1.48-1.69-2.73-1.02-1.07.58-.76,1.66-.78,2.59-.03,1.45-.1,2.9.01,4.33.17,2.03-.54,2.26-2.3,1.54-5.8-2.34-11.42-5.08-16.89-8.09-52.13-28.76-94.22-67.96-124.31-119.63-2.18-3.74-4.13-7.6-6.18-11.41-1.46-2.72-2.42-2.96-4.92-1.07-4.61,3.48-9.2,6.99-13.78,10.52-1.08.83-2.07,1.78-3.61,1.26-1.71-.57-1.5-2.1-1.59-3.37-1.42-20.5-6.61-39.98-15.54-58.48-7.99-16.54-18.26-31.64-29.15-46.35-4.7-6.35-9.48-12.63-14.24-18.92-2.11-2.78-3.15-2.75-5.28.07-1.8,2.38-3.56,4.79-5.39,7.15-1.98,2.55-3.93,2.35-5.07-.6-13.22-33.96-24.03-68.6-28.47-104.93-4.5-36.91-1.72-73.2,10.21-108.59,1.1-3.28,2.28-6.53,3.5-9.77,1.18-3.14,2.45-6.24,3.83-9.74ZM287.9,924.48c.47-.91,0-1.57-.22-2.29-27.55-93.59-55.09-187.17-82.61-280.76-.57-1.93-1.31-3.81-1.42-5.87-.12-2.22,1.03-2.46,2.72-1.85,1.86.67,2.65,2.45,3.72,3.9,29.41,39.8,58.8,79.62,88.19,119.44.7.95,1.46,1.68,2.6,2.16,16.84,7.03,33.67,14.1,50.48,21.2,1.35.57,2.02.73,1.99-1.17-.14-8.09-.2-16.18-.18-24.27,0-1.65-.7-1.95-2.08-1.84-3.28.25-6.54-.02-9.79-.46-14.15-1.9-25.85-7.95-33.71-20.25-6.76-10.57-8.64-22.47-9.03-34.74-.06-1.84.46-3.35,1.51-4.82,3.14-4.4,6.68-8.46,10.24-12.52,12.84-14.62,26.24-28.71,39.65-42.81,1.1-1.15,1.48-2.31,1.47-3.85-.05-11.37-.03-22.75-.03-34.12,0-45.49-.01-90.98.04-136.47,0-2.02-.72-4.97,1.46-5.74,2.45-.87,3.59,2.03,4.82,3.74,3.27,4.54,5.44,9.72,8.03,14.65,2.51,4.76,4.99,9.57,8.74,13.54.72.76,1.52,1.7,2.69,1.37,1.31-.37,1.51-1.7,1.61-2.82.21-2.3.3-4.61.36-6.92.68-23.15,3.11-46.08,8.39-68.66,5.09-21.76,12.48-42.61,24.74-61.48,4.05-6.24,8.59-12.08,14.1-17.12.61-.56,1.25-1.39,2.23-.82.89.51.37,1.34.27,2.08-.43,2.95-1,5.89-1.19,8.86-.79,12.42,1.57,24.12,8.3,34.76.73,1.15,1.4,2.43,2.87,3.1.9-1.8,1.69-3.44,2.53-5.06,7.9-15.26,16.84-29.84,28.44-42.62,17.88-19.7,39.06-31.97,66.75-29.46,1.19.11,2.38.06,2.93-1.26.53-1.28-.25-2.15-1.01-3.07-7.5-9.11-15.91-17.29-25.27-24.46-22.57-17.27-47.93-27.82-76.14-31.44-6.89-.88-13.79-1.42-20.74-.8-.54.05-1.21.37-1.56-.29-.44-.83.38-1.17.79-1.65.25-.29.56-.53.84-.79,30.13-27.54,60.22-55.12,90.41-82.61,21.93-19.97,43.75-40.05,66.02-59.63,1.92-1.69,2.42-1.2,3.05.89,3.7,12.25,6.98,24.59,9.1,37.22,3.71,22.1,3.55,44.05-1.94,65.89-4.88,19.39-13.23,37.27-23.39,54.37-1.13,1.9-1.08,3.19.39,4.84,3.4,3.8,6.68,7.72,9.91,11.67,8.15,9.94,15.5,20.37,19.91,32.6.46,1.28,1.08,2.56.04,3.81-1.19,1.42-2.64.77-4,.35-6.53-1.99-13.04-4.02-19.57-6-1.34-.41-2.84-1.14-3.92.45-.95,1.41,0,2.52.76,3.65,2.55,3.85,5.21,7.62,8.12,11.22,20.21,24.97,36.37,52.46,50.2,81.36,9.84,20.57,18.56,41.59,24.13,63.78,1.53,6.07,2.8,12.2,2.66,18.52-.03,1.43-.45,2.49-1.88,2.85-1.33.34-2.2-.4-2.78-1.52-.58-1.11-1.15-2.22-1.71-3.33-2.88-5.76-5.44-11.69-9.41-16.83-.8-1.04-1.67-2.29-3.33-1.59-1.64.68-1.4,2.05-1.21,3.44,1.4,10.01,2.62,20.04,3.18,30.15.99,17.86.4,35.61-3.62,53.12-2.93,12.76-9.4,23.91-16.07,34.96-8.61,14.27-18.68,27.56-27.92,41.4-1.38,2.07-2.54,4.3-3.78,6.46-.29.5-.53,1.13-.07,1.61.51.53,1.07.04,1.56-.17,2.4-1.05,4.5-2.6,6.58-4.15,9.54-7.09,18.18-15.19,26.41-23.73,13.55-14.05,25.81-29.1,35.24-46.28,6.07-11.06,10.52-22.64,11.61-35.37,1.43-16.81-.4-33.46-2.08-50.13-1.12-11.11-2.92-22.16-2.73-33.37.03-1.83.02-3.67.69-5.41,1.01-2.64,2.92-2.96,4.72-.81.31.37.59.76.9,1.13.49.57,1.02,1.49,1.78,1.17.98-.42.57-1.48.44-2.32-.58-3.51-1.1-7.04-1.75-10.54-3.73-20.06-12.17-38.21-22.77-55.44-3.58-5.82-7.43-11.47-11.12-17.21-1.38-2.14-.79-3.43,1.71-3.77,1.14-.15,2.31-.09,3.46-.13,5.58-.19,11.16-.43,16.74-.55,1.82-.04,2.62-.66,2.55-2.57-.11-2.78,0-5.57-.03-8.36-.13-12.95-3.54-24.86-11.05-35.53-4.11-5.83-8.49-11.45-12.91-17.03-1.47-1.85-1.32-3.24.66-4.54,2.41-1.59,4.78-3.24,7.15-4.88,3.62-2.51,3.66-3.06.48-5.97-9.31-8.52-18.33-17.32-26.43-27.04-4.06-4.87-5.6-9.81-3.94-16.19,2.9-11.16,5.14-22.44,5.64-34.08,1-23.04,1.28-45.99-2.98-68.79-4.16-22.25-11.86-43.14-23.21-62.7-1.56-2.7-2.45-2.82-4.95-.81-3.61,2.89-7.22,5.77-10.81,8.69-56.79,46.18-113.64,92.29-165.96,143.64-1.12,1.1-2.03,1.38-3.51.61-3.33-1.73-6.91-2.88-10.52-3.88-16.21-4.49-32.79-5.59-49.5-5.07-14.86.47-29.56,2.17-43.58,7.53-1.93.74-3.06.5-4.51-.93-11.85-11.71-24.02-23.08-36.43-34.2-44.98-40.33-91.92-78.32-138.95-116.2-2.89-2.33-3.56-2.18-5.46,1.13-7.22,12.53-13.23,25.62-17.3,39.51-11.82,40.39-12.53,81.22-3.57,122.15,1.99,9.08.54,15.88-5.69,22.54-7.5,8.02-15.09,15.94-23.24,23.29-4.27,3.86-4.28,4.12.57,7.43.95.65,1.9,1.31,2.86,1.96,5.96,4.07,6.34,3.31,1.68,9.63-8.6,11.67-16.19,23.91-19.6,38.25-1.65,6.93-2.14,13.85.72,20.67.79,1.89,1.65,2.41,3.68,1.4,5.06-2.54,10.25-4.84,15.39-7.22,1.01-.47,2.12-1.41,3.15-.31,1.15,1.23.09,2.29-.6,3.32-11.19,16.71-19.96,34.62-26.51,53.62-3.65,10.57-6.41,21.36-8.12,32.41-.2,1.3-.69,2.74.65,3.74,1.34,1.01,2.54.09,3.76-.43,1.5-.64,2.99-1.33,4.52-1.87,3.74-1.33,4.84-.62,4.71,3.25-.33,10.2-.84,20.39-1.16,30.59-.67,21.38,1.14,42.49,6.76,63.22,7.48,27.59,20.32,52.64,35.96,76.38,6.15,9.33,12.72,18.36,19.61,27.16.97,1.24,2.09,2.5.82,4.09-1.41,1.78-2.92.69-4.37-.07-.34-.18-.67-.38-1-.58-7.47-4.28-14.2-9.58-20.56-15.34-24.52-22.22-44.59-47.79-58.52-77.97-.6-1.29-1.15-2.56-2.88-2.2-1.69.35-1.79,1.76-1.89,3.16-.2,2.69-.45,5.37-.66,8.06-2.09,25.76-1.26,51.37,4.27,76.7,3.17,14.51,7.85,28.53,14.26,41.94,1.37,2.87,2.36,3.11,4.77,1.19,2.19-1.74,4.31-3.56,6.49-5.3,2.73-2.19,3.64-2.05,5.49.82,6.57,10.19,13.38,20.23,19.66,30.6,16.73,27.64,34.17,54.86,49.92,83.09,1.52,2.72,2.36,2.91,4.9.98,2.69-2.03,5.35-4.1,8.02-6.16,3.98-3.06,4.69-2.89,6.62,1.63,14.98,35.08,35.04,66.92,60.83,95.08,12.46,13.61,26.08,25.93,40.96,36.85,3.19,2.34,4.81,1.73,5.54-2.17.57-3.03,1-6.08,1.49-9.12.23-1.46.48-2.97,2.17-3.42,1.64-.44,2.38.92,3.25,1.92,7.44,8.59,14.84,17.21,22.32,25.76,1.49,1.7,2.87,3.59,4.98,4.69ZM408.75,870.44c.27-.81.57-1.62.82-2.44,4.09-13.24,5.73-26.89,6.62-40.64.96-14.82.86-29.62-1.29-44.37-.41-2.8-1.2-2.7-3.36-1.77-18.54,7.94-37.13,15.76-55.67,23.72-1.67.72-2.96.64-4.56-.05-6.34-2.76-12.74-5.39-19.12-8.06-12.67-5.31-25.35-10.58-38-15.94-1.75-.74-2.56-.95-2.86,1.43-.61,4.68-1.18,9.35-1.51,14.06-1.11,16.01-.32,31.95,1.76,47.83,1.19,9.05,2.78,18.02,6.12,27.09,3.65-22.45,9.7-43.71,18.32-64.83,2.81,4.51,5.34,8.38,7.65,12.36.94,1.62,1.62,1.66,3.05.59,2.69-2.02,5.57-3.78,8.3-5.76,1.27-.92,2-.91,2.97.47,1.93,2.76,4.13,5.32,6.11,8.05.98,1.35,1.58,1.24,2.52-.04,2.06-2.78,4.24-5.47,6.54-8.4,2.56,3.34,5.01,6.52,7.63,9.94,2.45-3.16,4.9-6.11,7.1-9.25,1.18-1.69,2.08-1.69,3.63-.52,2.53,1.92,5.3,3.51,7.81,5.45,1.57,1.22,2.29.95,3.25-.69,2.31-3.96,4.82-7.8,7.57-12.21,8.53,21.06,14.61,42.18,18.63,63.98ZM315.12,883.41c-.4.79-.68,1.19-.82,1.63-5.34,16.05-6.33,32.36-2.98,48.95.36,1.8,1.42,2.69,3.15,3.28,12.36,4.22,24.69,8.5,37.01,12.83,1.48.52,2.74.37,4.17-.15,11.91-4.35,23.82-8.69,35.78-12.88,2.2-.77,3.18-1.98,3.62-4.18,2.53-12.55,2.03-25.06-.38-37.55-.38-1.98-.83-3.95-1.41-5.88-.55-1.82-.9-3.76-2.29-5.69-.24.93-.4,1.47-.51,2.02-2.27,11.07-6.14,21.59-10.93,31.8-.89,1.89-1.49,1.88-2.58.21-.94-1.45-2.22-2.69-3.09-4.17-1.04-1.76-2.07-1.77-3.67-.74-1.85,1.19-3.9,3-5.79,2.92-1.97-.08-3.19-2.78-4.64-4.41-1.13-1.27-1.81-1.2-2.85.08-1.14,1.41-2.51,2.63-3.78,3.94-1.36-1.35-2.82-2.6-4.04-4.07-1.04-1.26-1.68-1.07-2.68,0-1.5,1.61-2.78,4.33-4.69,4.41-1.97.08-4.11-1.75-6.02-2.98-1.59-1.03-2.43-.62-3.46.79-1.43,1.95-2.65,4.11-4.78,5.85-1.05-2.22-2.06-4.18-2.93-6.2-4.04-9.47-7.4-19.17-9.43-29.8ZM422.84,478.48c-1.6.07-3.35-.6-3.9,1.33-.55,1.93,1.24,2.29,2.43,3.01,3.46,2.08,7.02,4.02,10.34,6.3,22.99,15.77,38.49,37.3,48.38,63.13.46,1.2.55,2.84,2.19,3.13,1.87.32,2.34-1.39,3.11-2.53,6.48-9.56,12.87-19.17,19.45-28.66,1.52-2.2,1.37-3.6-.51-5.43-9.15-8.89-19.02-16.84-30.08-23.25-16.02-9.27-33.16-15.16-51.41-17.03ZM507.88,427.23c.03-2.55-.26-5.51-.59-8.48-.25-2.2-1-2.75-3.17-2.13-10.52,3.01-21.07,5.93-31.63,8.82-1.98.54-2.6,1.39-2.06,3.5,1.73,6.69,3.21,13.45,4.91,20.16.62,2.44.08,3.55-2.55,4.24-12.06,3.2-24.06,6.64-36.08,9.99-.82.23-1.88.25-2.07,1.28-.22,1.19.87,1.56,1.67,2.04,7.21,4.24,14.95,6.52,23.37,6.04,9.94-.56,18.82-4.4,27.35-9.16,14.01-7.82,21.17-19.67,20.85-36.29ZM340.2,732.92c1.95.15,2.79-.48,3.31-1.46.61-1.14.28-2.22-.47-3.22-6.88-9.02-13.74-18.05-20.62-27.07-.79-1.03-1.7-1.88-3.16-1.41-1.47.47-2.15,1.52-2.17,3.04-.08,6.36.91,12.45,4.43,17.91,4.57,7.09,11.58,10.35,18.69,12.21ZM396.77,705.19c.02-.38.06-.77.07-1.15.03-1.77.06-3.58-2.1-4.22-2.03-.61-2.89.93-3.88,2.23-6.57,8.65-13.14,17.29-19.74,25.92-.88,1.15-1.44,2.3-.59,3.67.91,1.48,2.3,1.52,3.81,1.17,13.92-3.26,22.06-13.28,22.43-27.61Z" fill="#013594" stroke-width="0"/><path d="M287.9,924.48c-2.12-1.11-3.49-2.99-4.98-4.69-7.48-8.56-14.88-17.17-22.32-25.76-.87-1-1.6-2.36-3.25-1.92-1.69.45-1.94,1.96-2.17,3.42-.49,3.04-.92,6.09-1.49,9.12-.73,3.9-2.35,4.52-5.54,2.17-14.88-10.92-28.5-23.24-40.96-36.85-25.79-28.16-45.85-60-60.83-95.08-1.93-4.51-2.64-4.69-6.62-1.63-2.67,2.06-5.33,4.13-8.02,6.16-2.54,1.92-3.38,1.74-4.9-.98-15.75-28.23-33.19-55.44-49.92-83.09-6.27-10.37-13.08-20.41-19.66-30.6-1.85-2.86-2.77-3-5.49-.82-2.18,1.75-4.3,3.57-6.49,5.3-2.41,1.91-3.4,1.68-4.77-1.19-6.41-13.42-11.09-27.44-14.26-41.94-5.53-25.33-6.36-50.94-4.27-76.7.22-2.69.47-5.37.66-8.06.1-1.39.21-2.8,1.89-3.16,1.73-.36,2.28.91,2.88,2.2,13.93,30.18,34,55.75,58.52,77.97,6.36,5.76,13.09,11.06,20.56,15.34.33.19.66.4,1,.58,1.45.76,2.96,1.85,4.37.07,1.26-1.59.14-2.85-.82-4.09-6.89-8.8-13.46-17.83-19.61-27.16-15.64-23.74-28.48-48.78-35.96-76.38-5.62-20.73-7.44-41.84-6.76-63.22.32-10.2.83-20.39,1.16-30.59.13-3.87-.98-4.58-4.71-3.25-1.54.55-3.02,1.23-4.52,1.87-1.22.52-2.42,1.44-3.76.43-1.34-1.01-.86-2.44-.65-3.74,1.71-11.05,4.47-21.85,8.12-32.41,6.56-19,15.33-36.91,26.51-53.62.69-1.03,1.75-2.09.6-3.32-1.03-1.1-2.14-.16-3.15.31-5.14,2.38-10.33,4.68-15.39,7.22-2.02,1.01-2.88.49-3.68-1.4-2.86-6.81-2.37-13.74-.72-20.67,3.41-14.34,11-26.58,19.6-38.25,4.66-6.32,4.27-5.56-1.68-9.63-.95-.65-1.9-1.31-2.86-1.96-4.85-3.32-4.84-3.58-.57-7.43,8.15-7.36,15.74-15.27,23.24-23.29,6.23-6.66,7.68-13.47,5.69-22.54-8.97-40.93-8.25-81.76,3.57-122.15,4.07-13.89,10.08-26.98,17.3-39.51,1.9-3.31,2.57-3.46,5.46-1.13,47.03,37.88,93.97,75.87,138.95,116.2,12.41,11.12,24.57,22.49,36.43,34.2,1.45,1.43,2.57,1.67,4.51.93,14.02-5.36,28.72-7.06,43.58-7.53,16.71-.53,33.29.58,49.5,5.07,3.62,1,7.19,2.15,10.52,3.88,1.48.77,2.39.49,3.51-.61,52.32-51.35,109.17-97.45,165.96-143.64,3.59-2.92,7.2-5.8,10.81-8.69,2.5-2,3.38-1.88,4.95.81,11.35,19.56,19.05,40.46,23.21,62.7,4.26,22.81,3.98,45.75,2.98,68.79-.5,11.64-2.74,22.92-5.64,34.08-1.66,6.38-.12,11.32,3.94,16.19,8.1,9.72,17.12,18.51,26.43,27.04,3.18,2.92,3.15,3.46-.48,5.97-2.37,1.64-4.74,3.3-7.15,4.88-1.97,1.3-2.12,2.68-.66,4.54,4.42,5.59,8.8,11.2,12.91,17.03,7.52,10.67,10.93,22.58,11.05,35.53.03,2.79-.08,5.57.03,8.36.08,1.91-.73,2.53-2.55,2.57-5.58.12-11.16.36-16.74.55-1.16.04-2.32-.02-3.46.13-2.5.34-3.09,1.63-1.71,3.77,3.69,5.75,7.55,11.4,11.12,17.21,10.6,17.23,19.04,35.38,22.77,55.44.65,3.5,1.17,7.02,1.75,10.54.14.84.54,1.9-.44,2.32-.76.32-1.3-.59-1.78-1.17-.31-.37-.59-.76-.9-1.13-1.8-2.15-3.71-1.83-4.72.81-.67,1.74-.66,3.58-.69,5.41-.19,11.21,1.6,22.26,2.73,33.37,1.69,16.67,3.52,33.32,2.08,50.13-1.09,12.72-5.54,24.31-11.61,35.37-9.43,17.19-21.69,32.24-35.24,46.28-8.23,8.54-16.87,16.64-26.41,23.73-2.08,1.55-4.18,3.09-6.58,4.15-.5.22-1.05.7-1.56.17-.46-.48-.22-1.1.07-1.61,1.24-2.17,2.4-4.39,3.78-6.46,9.25-13.84,19.31-27.14,27.92-41.4,6.67-11.05,13.14-22.19,16.07-34.96,4.02-17.51,4.61-35.26,3.62-53.12-.56-10.1-1.78-20.13-3.18-30.15-.19-1.38-.43-2.75,1.21-3.44,1.66-.69,2.53.56,3.33,1.59,3.97,5.14,6.53,11.08,9.41,16.83.56,1.12,1.13,2.23,1.71,3.33.59,1.13,1.45,1.87,2.78,1.52,1.42-.37,1.85-1.43,1.88-2.85.13-6.33-1.14-12.45-2.66-18.52-5.58-22.19-14.29-43.22-24.13-63.78-13.83-28.9-29.99-56.39-50.2-81.36-2.91-3.6-5.57-7.37-8.12-11.22-.75-1.14-1.71-2.25-.76-3.65,1.08-1.59,2.58-.86,3.92-.45,6.53,1.98,13.04,4.01,19.57,6,1.36.41,2.81,1.07,4-.35,1.04-1.25.42-2.53-.04-3.81-4.4-12.23-11.75-22.67-19.91-32.6-3.24-3.95-6.51-7.86-9.91-11.67-1.47-1.65-1.52-2.94-.39-4.84,10.16-17.1,18.52-34.98,23.39-54.37,5.49-21.83,5.65-43.79,1.94-65.89-2.12-12.63-5.4-24.97-9.1-37.22-.63-2.09-1.13-2.58-3.05-.89-22.28,19.58-44.09,39.67-66.02,59.63-30.18,27.48-60.28,55.07-90.41,82.61-.28.26-.59.5-.84.79-.41.48-1.23.83-.79,1.65.35.66,1.02.34,1.56.29,6.95-.62,13.84-.08,20.74.8,28.21,3.62,53.58,14.17,76.14,31.44,9.36,7.17,17.77,15.35,25.27,24.46.76.92,1.54,1.8,1.01,3.07-.55,1.32-1.75,1.37-2.93,1.26-27.69-2.5-48.88,9.77-66.75,29.46-11.6,12.78-20.54,27.36-28.44,42.62-.84,1.62-1.63,3.26-2.53,5.06-1.48-.68-2.14-1.95-2.87-3.1-6.73-10.63-9.1-22.34-8.3-34.76.19-2.97.76-5.91,1.19-8.86.11-.74.62-1.56-.27-2.08-.98-.57-1.62.27-2.23.82-5.51,5.04-10.05,10.89-14.1,17.12-12.26,18.88-19.65,39.73-24.74,61.48-5.28,22.58-7.7,45.52-8.39,68.66-.07,2.31-.15,4.62-.36,6.92-.1,1.12-.3,2.45-1.61,2.82-1.16.33-1.97-.61-2.69-1.37-3.75-3.97-6.23-8.77-8.74-13.54-2.59-4.93-4.76-10.11-8.03-14.65-1.23-1.7-2.37-4.61-4.82-3.74-2.18.77-1.46,3.72-1.46,5.74-.05,45.49-.04,90.98-.04,136.47,0,11.37-.02,22.75.03,34.12,0,1.54-.37,2.69-1.47,3.85-13.4,14.1-26.81,28.19-39.65,42.81-3.56,4.05-7.1,8.12-10.24,12.52-1.05,1.47-1.57,2.98-1.51,4.82.38,12.27,2.27,24.17,9.03,34.74,7.86,12.29,19.57,18.34,33.71,20.25,3.25.44,6.51.71,9.79.46,1.38-.11,2.08.19,2.08,1.84-.02,8.09.04,16.18.18,24.27.03,1.9-.63,1.74-1.99,1.17-16.82-7.1-33.64-14.17-50.48-21.2-1.14-.48-1.9-1.21-2.6-2.16-29.38-39.82-58.78-79.63-88.19-119.44-1.07-1.45-1.86-3.22-3.72-3.9-1.69-.61-2.84-.38-2.72,1.85.11,2.06.86,3.94,1.42,5.87,27.52,93.59,55.06,187.18,82.61,280.76.21.72.69,1.38.22,2.29ZM99.71,423.16c.17,14.44,3.89,27.16,10.07,39.24.48.95.94,2.04,2.32,1.67,1.41-.37,1.16-1.54,1.08-2.6-1.92-25.06,2.53-48.88,14.13-71.22,9.34-18,22.18-32.77,40.28-42.52,3.31-1.78,6.76-3.23,10.31-4.45,1.04-.36,1.74-.88,1.52-2.06-.21-1.13-1.17-1.12-2.04-1.17-.48-.03-.96,0-1.44-.01-16.54-.05-32.22,3.6-47.08,10.88-.88.43-1.82,1.45-2.86.44-1.17-1.14-.09-2.15.44-3.08,5.76-10,11.67-19.92,18.23-29.43,14.42-20.92,31.5-39.11,53.42-52.38,24.83-15.02,52.05-21.48,80.77-22.6,1.04-.04,2.23.2,2.66-1.14.37-1.15-.55-1.74-1.24-2.39-6.83-6.37-13.56-12.86-20.51-19.09-34.78-31.15-69.68-62.17-104.4-93.39-11.09-9.98-21.74-20.45-32.64-30.64-2.71-2.54-3.48-2.24-4.63,1.35-3.4,10.63-6.29,21.39-8.43,32.35-4.83,24.71-5.03,49.32,1.51,73.8,4.93,18.44,12.93,35.54,22.67,51.86,1.25,2.09,1.23,3.52-.43,5.33-3.12,3.41-6.04,6.99-8.99,10.56-8.68,10.5-16.55,21.51-21,34.58-.4,1.16-1.2,2.45-.12,3.5.95.92,2.17.23,3.26-.11,7.54-2.3,15.07-4.61,22.62-6.87,1.03-.31,2.25-1.26,3.19-.08,1.05,1.34-.31,2.32-.95,3.29-7.11,10.76-14.25,21.49-21.39,32.23-11.76,17.7-18.52,37.06-19.5,58.36-.05,1.12-.51,2.36.72,3.16,1.31.86,2.17-.27,3.07-.86,2.74-1.79,5.4-3.7,8.15-5.48.87-.56,1.71-1.87,3-.7,1.11,1.01.14,2-.23,2.89-3.64,8.83-5.36,18.03-5.54,26.76ZM266.57,491.59c.55,7.45,1.04,14.35,1.58,21.24.07.91-.11,2.09,1.03,2.5,1.14.41,1.7-.64,2.38-1.27,13.09-12.36,26.17-24.73,39.27-37.08,1.83-1.73,2.82-3.79,3.3-6.25,3.31-17.08,4.76-34.28,4.15-51.68-.72-20.34-4.19-40.15-10.61-59.45-1.3-3.91-2.93-7.72-4.4-11.57-.34-.89-.82-1.62-1.89-1.26-.94.31-.8,1.18-.74,1.95.04.48.07.96.13,1.44,2.09,19.99,2.38,39.96-.54,59.9-2,13.66-5.22,26.99-11.31,39.48-1.52,3.12-1.64,3.11-4.2.97-14.18-11.87-28.31-23.78-42.56-35.56-8.6-7.11-17.18-14.3-27.92-18.16-18.48-6.64-36.23-5.72-53.01,5.1-1,.65-2.57,1.09-2.43,2.57.15,1.61,1.87,1.42,2.98,1.75,5.8,1.74,11.6,3.46,17.45,5,1.94.51,2.66,1.41,2.62,3.4-.11,5.3.26,10.58,1.05,15.83,2.13,14.33,7.64,26.95,18.76,36.69,9.61,8.41,21.07,12.86,33.37,15.47,1.5.32,3.05.49,4.52.9,1.46.4,3.16-.06,4.66,1.17-17.47,7.75-32.59,18.49-45.99,31.75-2.01,1.98-2.36,3.39-.66,5.84,7.13,10.28,14.04,20.7,21.05,31.07.68,1,1.11,2.36,2.71,2.22,1.65-.15,1.71-1.61,2.12-2.73,4.64-12.51,10.75-24.25,18.52-35.1,6.92-9.66,14.87-18.37,24.62-26.11Z" fill="#fdfdfe" stroke-width="0"/><path d="M408.75,870.44c-4.02-21.8-10.1-42.93-18.63-63.98-2.75,4.4-5.26,8.25-7.57,12.21-.96,1.64-1.67,1.91-3.25.69-2.51-1.94-5.28-3.54-7.81-5.45-1.54-1.17-2.44-1.17-3.63.52-2.2,3.13-4.65,6.09-7.1,9.25-2.62-3.42-5.07-6.6-7.63-9.94-2.29,2.93-4.48,5.62-6.54,8.4-.94,1.27-1.54,1.39-2.52.04-1.98-2.73-4.18-5.29-6.11-8.05-.97-1.38-1.7-1.39-2.97-.47-2.73,1.98-5.61,3.74-8.3,5.76-1.42,1.07-2.11,1.03-3.05-.59-2.31-3.98-4.84-7.85-7.65-12.36-8.61,21.11-14.67,42.37-18.32,64.83-3.34-9.07-4.93-18.04-6.12-27.09-2.08-15.88-2.87-31.82-1.76-47.83.33-4.71.9-9.38,1.51-14.06.31-2.38,1.11-2.17,2.86-1.43,12.65,5.36,25.33,10.64,38,15.94,6.38,2.67,12.77,5.3,19.12,8.06,1.6.69,2.89.77,4.56.05,18.54-7.95,37.13-15.78,55.67-23.72,2.16-.92,2.95-1.02,3.36,1.77,2.16,14.75,2.25,29.55,1.29,44.37-.89,13.75-2.53,27.4-6.62,40.64-.25.82-.55,1.63-.82,2.44Z" fill="#fdfdfe" stroke-width="0"/><path d="M315.12,883.41c2.03,10.63,5.39,20.33,9.43,29.8.86,2.02,1.88,3.98,2.93,6.2,2.13-1.73,3.34-3.9,4.78-5.85,1.04-1.41,1.87-1.81,3.46-.79,1.91,1.23,4.04,3.06,6.02,2.98,1.91-.07,3.19-2.8,4.69-4.41,1-1.08,1.64-1.27,2.68,0,1.21,1.47,2.68,2.72,4.04,4.07,1.27-1.31,2.64-2.53,3.77-3.94,1.03-1.28,1.72-1.35,2.85-.08,1.44,1.64,2.67,4.33,4.64,4.41,1.89.08,3.94-1.73,5.79-2.92,1.6-1.03,2.63-1.02,3.67.74.87,1.48,2.15,2.72,3.09,4.17,1.09,1.67,1.69,1.67,2.58-.21,4.79-10.21,8.66-20.73,10.93-31.8.11-.55.27-1.08.51-2.02,1.39,1.92,1.74,3.86,2.29,5.69.58,1.93,1.02,3.9,1.41,5.88,2.41,12.49,2.92,25,.38,37.55-.44,2.19-1.42,3.41-3.62,4.18-11.97,4.19-23.88,8.53-35.78,12.88-1.43.52-2.69.67-4.17.15-12.32-4.33-24.66-8.61-37.01-12.83-1.73-.59-2.78-1.48-3.15-3.28-3.34-16.58-2.36-32.9,2.98-48.95.15-.44.42-.85.82-1.63Z" fill="#fdfdfe" stroke-width="0"/><path d="M422.84,478.48c18.25,1.87,35.39,7.76,51.41,17.03,11.06,6.4,20.93,14.35,30.08,23.25,1.88,1.83,2.04,3.23.51,5.43-6.58,9.49-12.97,19.11-19.45,28.66-.77,1.14-1.24,2.85-3.11,2.53-1.64-.28-1.73-1.92-2.19-3.13-9.89-25.83-25.39-47.36-48.38-63.13-3.32-2.28-6.88-4.22-10.34-6.3-1.19-.72-2.98-1.08-2.43-3.01.55-1.93,2.3-1.26,3.9-1.33Z" fill="#fdfdfe" stroke-width="0"/><path d="M507.88,427.23c.32,16.62-6.84,28.47-20.85,36.29-8.53,4.76-17.41,8.61-27.35,9.16-8.42.47-16.15-1.81-23.37-6.04-.8-.47-1.89-.85-1.67-2.04.19-1.02,1.25-1.05,2.07-1.28,12.02-3.35,24.02-6.8,36.08-9.99,2.63-.7,3.17-1.81,2.55-4.24-1.69-6.7-3.18-13.46-4.91-20.16-.54-2.11.07-2.96,2.06-3.5,10.56-2.88,21.11-5.8,31.63-8.82,2.17-.62,2.92-.07,3.17,2.13.34,2.97.63,5.93.59,8.48Z" fill="#fdfdfe" stroke-width="0"/><path d="M340.2,732.92c-7.11-1.86-14.11-5.11-18.69-12.21-3.52-5.46-4.51-11.55-4.43-17.91.02-1.52.7-2.57,2.17-3.04,1.46-.47,2.38.37,3.16,1.41,6.88,9.02,13.75,18.05,20.62,27.07.76,1,1.09,2.08.47,3.22-.52.98-1.36,1.61-3.31,1.46Z" fill="#fdfdfe" stroke-width="0"/><path d="M396.77,705.19c-.38,14.34-8.52,24.35-22.44,27.61-1.51.35-2.9.32-3.81-1.17-.84-1.37-.29-2.52.59-3.67,6.59-8.63,13.17-17.27,19.74-25.92.99-1.3,1.85-2.84,3.88-2.23,2.16.65,2.13,2.45,2.1,4.22,0,.38-.04.77-.06,1.15Z" fill="#fdfdfe" stroke-width="0"/><path d="M99.71,423.16c.18-8.73,1.89-17.93,5.54-26.76.36-.88,1.34-1.87.23-2.89-1.28-1.17-2.13.13-3,.7-2.75,1.78-5.41,3.69-8.15,5.48-.9.59-1.76,1.72-3.07.86-1.23-.8-.77-2.04-.72-3.16.98-21.3,7.75-40.67,19.5-58.36,7.14-10.74,14.28-21.47,21.39-32.23.64-.97,2-1.95.95-3.29-.93-1.19-2.16-.23-3.19.08-7.55,2.26-15.08,4.56-22.62,6.87-1.09.33-2.31,1.02-3.26.11-1.09-1.05-.28-2.34.12-3.5,4.46-13.07,12.32-24.08,21-34.58,2.94-3.56,5.87-7.15,8.99-10.56,1.66-1.81,1.68-3.24.43-5.33-9.74-16.32-17.74-33.42-22.67-51.86-6.55-24.48-6.35-49.09-1.51-73.8,2.14-10.95,5.03-21.72,8.43-32.35,1.15-3.58,1.92-3.88,4.63-1.35,10.9,10.19,21.55,20.67,32.64,30.64,34.72,31.22,69.62,62.24,104.4,93.39,6.96,6.23,13.68,12.72,20.51,19.09.7.65,1.62,1.23,1.24,2.39-.43,1.34-1.62,1.1-2.66,1.14-28.72,1.12-55.95,7.58-80.77,22.6-21.92,13.26-39,31.46-53.42,52.38-6.56,9.51-12.46,19.43-18.23,29.43-.54.93-1.62,1.94-.44,3.08,1.04,1.01,1.98,0,2.86-.44,14.85-7.28,30.53-10.93,47.08-10.88.48,0,.96-.02,1.44.01.87.05,1.83.04,2.04,1.17.22,1.18-.48,1.71-1.52,2.06-3.55,1.22-7,2.67-10.31,4.45-18.1,9.75-30.93,24.52-40.28,42.52-11.6,22.35-16.05,46.17-14.13,71.22.08,1.06.33,2.22-1.08,2.6-1.38.36-1.83-.72-2.32-1.67-6.17-12.08-9.9-24.8-10.07-39.24Z" fill="#013594" stroke-width="0"/><path d="M266.57,491.59c-9.75,7.74-17.7,16.45-24.62,26.11-7.77,10.85-13.88,22.59-18.52,35.1-.42,1.12-.47,2.58-2.12,2.73-1.61.15-2.04-1.22-2.71-2.22-7-10.36-13.92-20.79-21.05-31.07-1.7-2.45-1.35-3.86.66-5.84,13.4-13.26,28.52-24,45.99-31.75-1.5-1.23-3.2-.76-4.66-1.17-1.48-.41-3.02-.58-4.52-.9-12.3-2.61-23.76-7.06-33.37-15.47-11.12-9.73-16.63-22.35-18.76-36.69-.78-5.24-1.15-10.53-1.05-15.83.04-1.99-.68-2.88-2.62-3.4-5.85-1.54-11.65-3.27-17.45-5-1.11-.33-2.82-.15-2.98-1.75-.14-1.48,1.43-1.92,2.43-2.57,16.79-10.83,34.53-11.74,53.01-5.1,10.74,3.86,19.32,11.05,27.92,18.16,14.25,11.78,28.38,23.7,42.56,35.56,2.56,2.15,2.68,2.15,4.2-.97,6.09-12.49,9.31-25.82,11.31-39.48,2.92-19.94,2.63-39.91.54-59.9-.05-.48-.09-.96-.13-1.44-.06-.77-.2-1.64.74-1.95,1.08-.35,1.55.37,1.89,1.26,1.47,3.86,3.1,7.66,4.4,11.57,6.42,19.29,9.89,39.11,10.61,59.45.61,17.4-.84,34.61-4.15,51.68-.48,2.46-1.47,4.52-3.3,6.25-13.1,12.35-26.18,24.72-39.27,37.08-.67.63-1.23,1.68-2.38,1.27-1.14-.41-.96-1.59-1.03-2.5-.54-6.89-1.03-13.79-1.58-21.24ZM242.03,469.89c9.38.13,15.47-1.72,21.17-4.95.85-.48,2.21-.74,1.98-2.11-.2-1.21-1.48-1.07-2.35-1.31-10.44-2.94-20.88-5.88-31.36-8.7-2.02-.54-2.64-1.26-2.07-3.4,1.47-5.57,2.58-11.24,4.07-16.8.71-2.65.41-3.86-2.6-4.6-8.2-2.02-16.29-4.48-24.42-6.75-4.76-1.33-4.9-1.34-5.41,3.62-1.07,10.27.08,20.19,7.3,28.16,9.69,10.69,22.33,15.53,33.69,16.85Z" fill="#013594" stroke-width="0"/><path d="M242.03,469.89c-11.36-1.32-24-6.16-33.69-16.85-7.22-7.97-8.37-17.89-7.3-28.16.52-4.95.65-4.95,5.41-3.62,8.13,2.27,16.22,4.73,24.42,6.75,3.01.74,3.31,1.96,2.6,4.6-1.49,5.56-2.6,11.23-4.07,16.8-.56,2.14.05,2.86,2.07,3.4,10.47,2.82,20.91,5.77,31.36,8.7.87.24,2.15.1,2.35,1.31.23,1.37-1.13,1.63-1.98,2.11-5.7,3.23-11.79,5.08-21.17,4.95Z" fill="#fdfdfe" stroke-width="0"/></g></svg>