<?xml version="1.0" encoding="UTF-8"?><svg id="b" xmlns="http://www.w3.org/2000/svg" viewBox="0 0 700 374.81"><g id="c"><path d="M.31,374.81c-.55.04-.17-.39-.28-.56.41-.32.38-.84.5-1.27,5.82-20.8,12.58-41.31,20.06-61.57,9.09-24.62,19.14-48.83,31.41-72.05,21.95-41.51,50.03-78.49,83.2-111.64,9.54-9.54,19.36-18.81,30.67-26.3,4.72-3.13,9.4-6.32,14.13-9.43,29.03-19.15,58.23-38.03,87.47-56.85,1.06-.68,1.1-1.1.43-2.1-3.46-5.23-6.85-10.51-10.26-15.77-1.1-1.69-1.1-1.71.91-2.34,4.9-1.52,9.96-2.17,15.05-2.57,12.97-1,25.94-.94,38.86.7,11.57,1.46,22.97,3.86,34.32,6.52,11.11,2.6,22.1,5.66,33.17,8.43,1.22.31,2.44.74,3.81.48-10.13-7.24-21.03-13.2-31.87-19.69.62-.15,1.03-.25,1.43-.33,9.5-1.9,19.08-3.33,28.69-4.56,17.12-2.19,34.3-3.45,51.55-3.81,23.28-.49,46.44,1.01,69.48,4.4,14.92,2.19,29.66,5.16,44.25,9,10.55,2.78,20.23,7.18,28.89,13.84,4.82,3.71,9.78,7.25,14.7,10.83,2.12,1.54,4.23,3.1,6.66,4.15,7.29,3.15,14.61,6.26,21.87,9.47,18.21,8.07,36.4,16.15,54.12,25.27,6.92,3.56,13.27,7.91,18.67,13.54,5.57,5.81,8.2,12.72,7.75,20.81-.3,5.32-1.87,10.28-3.88,15.14-4.05,9.82-9.58,18.83-15.34,27.7-1.24,1.91-2.16,3.93-2.74,6.11-.51,1.9-.99,3.8-1.46,5.7-4.81,19.51-2.43,13.02-11.55,29.87-2.63,4.85-5.44,9.61-8.83,13.99-.8,1.04-1.66,2.04-2.73,2.81-1.12.81-1.82.63-2.5-.56-.68-1.19-1.03-2.51-1.33-3.83-1.44-6.36-1.86-12.87-2.85-19.3-.35-2.29-.46-4.68-1.94-6.66-1.59-2.14-3.76-3.48-6.22-4.39-4.23-1.57-8.62-1.66-13.03-1.25-6.85.63-13.34,2.75-19.83,4.92-13.55,4.52-23.76,13.17-31.51,24.97-5.51,8.38-9.59,17.43-12.67,26.95-1.93,5.97-3.56,12.02-4.19,18.29-.3,2.98.4,3.89,3.26,4.84.8.26,1.62.45,2.45.59,1.23.2,2.47.33,4.03.53-1.58,1.36-2.91,2.6-4.33,3.71-5.85,4.59-12.11,8.3-19.72,9.14-5.59.62-9.07-1.88-9.89-7.45-.91-6.2-.29-12.36,1.37-18.36,1.78-6.47,5.28-12.16,8.94-17.72,8.71-13.23,18.98-25.2,29.72-36.79.3-.32.89-.51.73-1.15.02.18.13.17.23.08.04-.04.03-.13.04-.2-.09.06-.17.11-.26.17-.51.23-1.03.41-1.52.68-14.55,8.11-27.45,18.36-39.11,30.21-3.91,3.97-7.06,8.5-9.41,13.54-6.34,13.59-7.25,27.74-4.08,42.24,1.17,5.37,2.94,10.56,6.37,14.98,4.37,5.63,10.38,8.74,17.03,10.79,5.85,1.8,11.9,2.44,17.97,2.97,6.77.59,13.53,1.18,20.34,1.01,4.17-.11,7.43-1.64,9.65-5.22,1.26-2.03,2.56-4.03,3.75-6.09,1.47-2.55,3.34-4.72,5.62-6.58,5.42-4.41,11.05-8.52,16.92-12.3,1.97-1.26,3.94-2.53,6.13-3.39.47-.19,1.03-.49,1.44-.08.35.35.08.89-.06,1.33-.71,2.13-1.63,4.18-2.57,6.21-4.28,9.25-9,18.29-13.73,27.31-.43.82-.44,1.21.42,1.73,2.09,1.29,3.9,2.93,5.24,5.01,1.92,2.98,2.06,6.04.32,9.16-.69,1.23-1.49,2.39-2.44,3.42-5.7,6.15-12.24,11.14-20.04,14.37-3.15,1.3-6.34,2.51-9.41,4.03-5.28,2.61-9.91,5.9-13.23,10.97-2.61,3.99-6.24,7.08-10.22,9.72-.74.49-1.22.48-1.94-.06-5.19-3.86-10.39-7.69-15.63-11.47-11.39-8.21-22.45-16.9-34.2-24.6-7.6-4.98-15.49-9.45-24.17-12.34-2.76-.92-5.58-1.58-8.47-1.88-6.55-.67-12.01,1.84-16.89,5.88-5.79,4.78-9.82,10.87-12.91,17.63-.33.72-.6,1.13-1.53.92-12.06-2.68-24.22-4.83-36.41-6.82-15.29-2.5-30.65-4.58-46.04-6.32-13.73-1.55-27.49-2.81-41.27-3.77-16.03-1.12-32.08-1.88-48.15-2.19-27.94-.55-55.83.07-83.6,3.63-17.93,2.3-35.73,5.31-53.39,9.13-40.93,8.84-80.89,20.93-119.98,35.92-4.83,1.85-9.7,3.65-14.38,5.88ZM176.01,156.74c.43-.35.72-.57.99-.81,10.97-9.73,21.85-19.56,33.09-28.98,9.55-8,19.05-16.08,29.69-22.62,19.69-12.1,40.03-23.05,60.53-33.72,6.38-3.32,12.7-6.79,19.48-9.26,1.15-.42,1.1-1.14.51-1.97-.88-1.25-2.07-2.17-3.31-3.01-6.8-4.57-13.86-8.7-21.01-12.69-.41-.23-.85-.38-1.27-.6-1.03-.52-1.88-.34-2.59.59-1.31,1.71-3.08,2.83-4.96,3.83-14.12,7.5-28.25,14.99-42.19,22.83-9.7,5.46-19.47,10.81-28.33,17.63-16.82,12.96-32.82,26.89-48.79,40.86-.64.56-.56,1.03-.33,1.71,1.89,5.77,3.76,11.55,5.63,17.33.94,2.92,1.88,5.84,2.86,8.88ZM305.08,137.19c-.22.34-.31.44-.36.56-8.08,18.42-11.71,37.58-9.06,57.63,2.7,20.49,12.32,37.35,27.63,51.09,15.68,14.07,33.55,24.54,53.11,32.2,16.32,6.39,33.2,10.6,50.58,12.84,3.56.46,7.14.87,10.83.94-.33-.45-.75-.38-1.08-.47-24.09-6.24-46.62-16.07-67.64-29.36-7.36-4.66-14.6-9.49-20.57-15.98-8.16-8.87-14.33-19.04-19.53-29.84-9.52-19.78-15.73-40.67-20.51-62.02-1.29-5.75-2.37-11.54-3.39-17.6ZM509.05,59.56c.52.17.82.29,1.12.38,9.5,2.66,18.92,5.56,28.31,8.56,24,7.68,47.49,16.79,70.99,25.85,12.73,4.91,25.55,9.59,37.95,15.33,9.12,4.22,18.17,8.6,27.26,12.87,2.28,1.07,2.8.75,3.23-1.73.04-.23.06-.47.07-.7.3-3.85,1.26-7.54,2.66-11.14.5-1.3.8-2.69,1.27-4,1.02-2.86.34-5.38-1.27-7.84-3.23-4.95-8.2-7.7-13.09-10.55-1.13-.66-1.68-.26-1.65,1.06.05,1.73.16,3.47.41,5.17.56,3.81.69,7.55-1.12,11.11-1,1.97-1.65,2.27-3.67,1.37-3.88-1.73-7.77-3.46-11.59-5.34-19.44-9.57-39.24-18.22-60.24-23.91-8.52-2.31-16.97-4.92-25.44-7.41-.46-.14-1.2-.11-1.25-.69-.04-.51.61-.77,1.04-1.05,2.05-1.32,4.24-2.37,6.5-3.28,1.21-.49,1.28-.75.16-1.49-1.82-1.21-3.27-2.79-4.73-4.37-1.14-1.24-2.3-2.48-3.67-3.47-4.37-3.15-7.95-7.11-11.47-11.13-1.28-1.47-2.24-3.09-2.72-5-.34-1.36-.81-2.69-1.54-3.9-.99-1.65-2.39-2.57-4.39-2.52-1.64.04-3.27.05-4.9.33-2.11.37-2.11.35-1.02,2.08.3.47.61.94.9,1.42,3.4,5.54,6.94,11,9.64,16.94,1.04,2.29.69,2.88-1.8,3.45-.09.02-.19.02-.28.04-4.26.81-8.57.86-12.88.82-6.19-.06-12.36.08-18.48,1.12-1.45.25-2.97.34-4.35,1.6ZM520.03,163.69c3.39-.75,6.47-1.49,9.58-2.11,5.09-1.01,10.18-2.26,15.42-1.83,4.36.36,8.7.2,13.06.11,4.99-.1,9.99-.67,14.91.96,2.83.94,5.81,1.41,8.7,2.18,3.02.8,5.82.36,8.54-1.11,1.73-.94,3.45-1.88,5.05-3.03,2.67-1.92,5.46-3.6,8.45-4.97,1.53-.7,3.01-1.52,4.36-2.53,1.57-1.18,1.62-1.81.16-3.08-2.01-1.75-4.45-2.49-7.03-2.91-3.71-.61-7.26.41-10.85,1-3.51.58-6.98,1.38-10.54,1.63-.48.03-1.19.28-1.38-.28-.19-.54.51-.82.9-1.1,1.51-1.11,3.08-2.13,4.56-3.27.86-.66,2.24-1.19,2.09-2.42-.17-1.37-1.61-1.84-2.76-2.33-3.32-1.4-6.76-1.35-10.21-.64-5.84,1.2-10.95,3.98-15.77,7.37-2.18,1.53-4.31,3.15-6.49,4.69-1.31.93-2.72,1.66-4.37,1.78-.69.05-1.56.24-1.95-.43-.42-.71.27-1.31.73-1.82,1.15-1.29,2.35-2.55,3.54-3.81,2.22-2.35,4.42-4.72,6.39-7.28.83-1.08,1.64-2.17,2.18-3.43.65-1.49.25-2.18-1.39-2.39-1.08-.14-2.15.04-3.2.29-5.46,1.31-10.16,4.01-14.17,7.9-6.41,6.22-12.01,13.13-17.07,20.47-.47.69-.86,1.43-1.44,2.41ZM373.89,73.9c.28-.5.47-.81.64-1.14,2.89-5.57,6.45-10.62,11.05-14.93,3.55-3.33,6.82-6.95,10.15-10.51.64-.68.75-1.01-.25-1.41-2.64-1.06-5.23-2.26-7.87-3.34-9.64-3.94-19.25-8-29.4-10.52-11.89-2.95-23.93-5.21-35.96-7.55-2.1-.41-4.21-.78-6.32-1.17.35.54.76.82,1.19,1.09,10.12,6.4,20.19,12.88,30.38,19.16,3.89,2.4,7.23,5.3,10.09,8.81,1.42,1.74,2.86,3.46,4.26,5.23,4.15,5.25,8.07,10.68,12.04,16.28ZM145.05,154.4c.27.86.57,1.89.91,2.91,2.12,6.24,4.25,12.47,7.19,18.38,1.21,2.43,1.5,2.51,3.53.86,5.21-4.23,9.89-9.02,14.35-14.02.53-.6.58-1.16.36-1.92-1.05-3.73-1.99-7.5-3.06-11.22-1.31-4.58-2.53-9.19-4.31-13.62-.43-1.08-.91-1.23-1.81-.48-1.73,1.44-3.37,2.97-4.96,4.57-3.94,3.95-7.79,7.97-11.19,12.4-.45.58-.96,1.16-1.02,2.15ZM118.24,185.2c-3.92,4.44-7.69,8.59-10.68,13.38-.74,1.18-.91,2.36-.49,3.73,1.27,4.1,2.44,8.24,3.67,12.35.86,2.87,1.77,5.73,2.74,8.83,2.05-2.17,3.93-4.12,5.76-6.11,2.12-2.31,4.24-4.62,6.01-7.23.54-.8.9-1.58.61-2.61-2.06-7.52-4.92-14.77-7.62-22.35ZM96.19,247.02c.57-.7.93-1.13,1.28-1.57,3.48-4.41,7.04-8.76,10.15-13.45.42-.64.96-1.24.78-2.17-1.4-7.16-2.79-14.32-4.73-21.36-.13-.46-.14-1.18-.67-1.28-.53-.1-.82.54-1.14.93-3.28,4.04-6.17,8.36-8.91,12.78-3.57,5.77-3.27,3.69-1.51,10.18,1.43,5.27,3.11,10.47,4.74,15.93ZM484.16,34.19c.21.43.57.38.88.45,9.63,2.13,19.26,4.28,28.82,6.73,5.38,1.38,10.8,2.65,15.98,4.75.57.23,1.22.97,1.76.4.5-.52-.15-1.21-.4-1.78-.19-.43-.43-.83-.68-1.22-2.62-4.06-5.64-7.82-8.95-11.34-1.01-1.07-2.16-1.5-3.61-1.51-9.43-.05-18.81.71-28.14,2.06-1.91.28-3.87.53-5.65,1.47ZM140.58,158.57c-2.92,3.02-5.79,5.82-8.01,9.2-.56.86-.62,1.74-.34,2.68,2.22,7.42,5.15,14.58,7.98,21.94.42-.44.74-.77,1.05-1.1,2.74-2.94,5.23-6.13,8.47-8.58.58-.44.41-.96.26-1.52-.55-2-1.54-3.8-2.44-5.65-1.37-2.81-3.04-5.47-4.05-8.46-.94-2.78-1.9-5.55-2.92-8.52ZM128.71,172.04c-2.83,2.55-5.54,5.05-7.76,8.04-.79,1.06-1.02,2.12-.51,3.39.7,1.73,1.24,3.52,1.91,5.26,1.98,5.19,3.99,10.37,6.01,15.54.15.39.12,1.32,1.05.63,2.41-1.79,4.74-3.64,6.66-5.99,1.15-1.41,1.25-2.91.79-4.61-.78-2.84-1.7-5.63-2.72-8.39-1.7-4.64-3.47-9.24-5.43-13.89ZM93.67,250.71c-.29-1.41-.55-2.79-.86-4.16-1.13-5.06-2.17-10.14-3.84-15.06-.15-.43-.18-1.05-.68-1.14-.6-.11-.82.55-1.08.95-1.52,2.37-2.66,4.93-3.58,7.58-.21.59-.23,1.2-.04,1.8,1.7,5.34,3.72,10.57,5.63,15.84.31.85.7.51,1.07.07,1.3-1.55,2.38-3.24,3.16-5.1.11-.25.15-.53.21-.78ZM86.32,262c-.42-1.97-.86-4.21-1.37-6.44-.9-3.91-1.75-7.83-3.16-11.61-.16-.42-.26-1.01-.77-1.09-.6-.09-.84.52-1.1.93-1.16,1.83-1.88,3.85-2.55,5.89-.27.83-.24,1.62.1,2.45,1.01,2.46,1.96,4.94,2.95,7.41.85,2.12,1.71,4.24,2.6,6.34.11.26.06.85.69.59.8-.33,2.63-3.24,2.6-4.46ZM77.13,274.82c1.31-1.3,2.19-2.71,2.93-4.23.19-.39.23-.82.13-1.24-1.11-4.69-2.54-9.28-4.5-13.69-.37-.83-.81-.81-1.33-.16-1.27,1.58-2.27,3.31-3.01,5.2-.15.39-.1.72.04,1.08,1.68,4.41,3.74,8.65,5.74,13.04ZM61.17,298.17c-.43-1.78-1.32-3.3-2.32-4.78-.62-.91-1.05-.84-1.59.08-2.06,3.51-3.87,7.15-5.47,10.89-.23.54-.27,1.06,0,1.61.54,1.09,1.12,2.16,1.88,3.12.93,1.17,1.24,1.18,2.06-.05,2.03-3.04,3.74-6.25,5.1-9.65.15-.38.23-.8.34-1.21ZM70.18,265.26c-1.47,1.92-2.5,3.82-3.17,5.91-.06.2,0,.47.07.68,1.24,3.32,2.62,6.58,4.26,9.73.4.76.81.6,1.27.09.82-.91.97-1.99.75-3.15-.26-1.37-.5-2.75-.82-4.11-.7-2.98-1.24-6-2.35-9.15ZM65.26,276.55c-1.65,1.96-1.86,3.34-.79,5.25.93,1.67,1.94,3.3,2.94,4.92.23.38.46,1,.96.88.58-.14.51-.83.51-1.31-.02-3.67-2.07-6.55-3.62-9.74ZM65,291.89c.06-.45-.11-.84-.3-1.21-.74-1.46-1.45-2.94-2.26-4.35-.37-.64-.7-1.78-1.58-1.51-1.03.32-1.06,1.55-1.17,2.51-.04.33.19.71.36,1.04.79,1.49,1.65,2.94,2.68,4.28.35.46.64,1.23,1.35,1,.75-.24.82-1.06.92-1.75ZM48.52,322.08c-.3-1.28-.85-2.4-1.61-3.42-.44-.59-.77-.31-1.05.18-.66,1.15-1.11,2.38-1.34,3.67-.19,1.08,1.33,2.9,2.02,2.48,1.06-.65,1.76-1.65,1.98-2.9ZM51.26,314.78c.05-1.06-.28-2.27-.94-3.36-.64-1.06-1.18-1.01-1.77.11-.93,1.76-.75,2.68.92,4.44.36.38.71,1.08,1.31.83.56-.23.42-.96.48-1.51,0-.09,0-.19,0-.51Z" fill="#0a4a7c" stroke-width="0"/></g></svg>